<svg width="718" height="718" viewBox="0 0 718 718" fill="none" xmlns="http://www.w3.org/2000/svg">
<path d="M359 0C557.27 0 718 160.73 718 359C718 557.27 557.27 718 359 718C160.73 718 0 557.27 0 359C0 160.73 160.73 0 359 0ZM494.669 231C466.343 231 435.326 246.678 402.609 277.604C387.172 292.131 373.574 307.954 363.66 320.468L361.998 318.476C326.903 276.577 279.928 231 233.502 231C177.587 231.278 130.159 270.748 115.214 324.389C114.075 327.294 113.542 329.31 113.399 329.961C111.275 339.598 110 349.667 110 360.023C110 431.511 165.236 489.623 233.36 489.623C261.686 489.623 292.703 473.944 325.42 443.019C339.893 429.399 352.748 414.642 362.467 402.539L364.369 400.154C364.369 400.011 364.511 400.011 364.511 399.867C399.918 442.3 447.648 489.335 494.811 489.335C551.566 489.054 599.525 448.65 613.699 393.774C614.244 392.185 614.531 391.095 614.63 390.661C616.754 381.024 618.029 370.955 618.029 360.599C617.887 289.111 562.652 231 494.669 231ZM614.63 389.942C614.338 391.227 614.027 392.505 613.699 393.774C609.551 405.879 590.372 446.902 524.27 446.902C512.231 446.902 499.342 442.875 487.445 437.266C489.254 437.633 490.832 437.881 492.252 438.014C502.51 442.052 513.38 444.853 524.128 445.177C594.234 447.19 613.638 393.972 614.63 389.942ZM233.502 282.494C234.863 282.494 236.357 282.631 238.077 282.902C263.363 293.499 284.561 311.249 290.296 316.872C310.741 337.078 329.989 360.12 331.041 361.537L331.086 361.605C321.597 373.688 308.141 390.086 292.42 404.901C263.386 432.231 244.266 438.128 233.502 438.128C192.712 438.128 159.57 403.319 159.57 360.312C159.57 317.735 192.712 282.926 233.502 282.494ZM494.527 282.494C535.317 282.494 568.459 317.304 568.459 360.312C568.459 402.888 535.317 437.696 494.527 438.128C493.81 438.128 493.056 438.089 492.252 438.014C466.012 427.684 443.781 409.254 437.875 403.463C416.914 382.606 397.085 358.873 397.085 358.873C397.08 358.867 397.074 358.861 397.069 358.855C406.552 346.789 419.958 330.472 435.609 315.722C464.644 288.105 483.622 282.494 494.527 282.494ZM337.518 369.003C341.334 373.4 344.977 377.613 348.281 381.441C346.796 379.721 345.243 377.922 343.636 376.064L337.518 369.003ZM363.802 320.324C363.802 320.324 379.655 338.869 397.069 358.855C397.027 358.909 396.985 358.963 396.943 359.017C383.878 344.021 371.689 329.836 366.411 323.68L363.66 320.468L363.802 320.324ZM203.76 273.72C215.798 273.72 228.686 277.748 240.583 283.357C239.695 283.177 238.863 283.026 238.077 282.902C227.143 278.32 215.445 275.075 203.901 274.728C135.636 273.001 115.666 323.344 113.824 329.817C114.25 327.993 114.714 326.183 115.214 324.389C120.873 309.958 141.512 273.6 203.76 273.72Z" fill="#007EA7" fill-opacity="0.08"/>
</svg>
