<svg width="2537" height="661" viewBox="0 0 2537 661" fill="none" xmlns="http://www.w3.org/2000/svg">
<g filter="url(#filter0_f_200_512)">
<path fill-rule="evenodd" clip-rule="evenodd" d="M953.193 286.661C918.147 278.532 747.752 245.29 584.609 244.129C293.367 242.387 208.169 293.194 200.314 299.726C256.508 242.823 464.366 200.29 710.894 200C912.105 200 1115.73 247.468 1266.19 290.29L1266.79 290.145C1266.79 290.145 1334.47 308.871 1408.79 329.048C1408.79 329.048 1493.38 353 1582.81 374.048C1617.85 382.177 1787.64 414.984 1950.79 416.145C2249.88 418.177 2332.66 364.468 2336.89 360.403C2281.91 417.742 2073.45 460.419 1825.71 460.71C1624.5 460.71 1420.87 413.242 1269.81 370.419C1269.81 370.564 1269.21 370.564 1269.21 370.71C1269.21 370.71 1201.53 351.984 1127.21 331.806C1127.82 331.806 1043.22 307.71 953.193 286.661Z" fill="url(#paint0_linear_200_512)"/>
</g>
<defs>
<filter id="filter0_f_200_512" x="-16" y="0" width="2568" height="661" filterUnits="userSpaceOnUse" color-interpolation-filters="sRGB">
<feFlood flood-opacity="0" result="BackgroundImageFix"/>
<feBlend mode="normal" in="SourceGraphic" in2="BackgroundImageFix" result="shape"/>
<feGaussianBlur stdDeviation="100" result="effect1_foregroundBlur_200_512"/>
</filter>
<linearGradient id="paint0_linear_200_512" x1="1268.6" y1="200" x2="1268.6" y2="460.71" gradientUnits="userSpaceOnUse">
<stop stop-color="#B8EAFF"/>
<stop offset="0.807692" stop-color="#67A4BE"/>
<stop offset="0.9999" stop-color="#90C7DE"/>
</linearGradient>
</defs>
</svg>
