<svg width="69" height="36" viewBox="0 0 69 36" fill="none" xmlns="http://www.w3.org/2000/svg">
<g clip-path="url(#clip0_104_840)">
<path d="M52.0939 0C48.2578 0 44.0573 2.12326 39.6266 6.31134C37.536 8.27876 35.6946 10.4215 34.352 12.1162C34.352 12.1162 36.5002 14.6291 38.8594 17.3367C40.1445 15.7004 41.9666 13.4798 44.0956 11.4734C48.0276 7.73334 50.5978 6.97364 52.0747 6.97364C57.5986 6.97364 62.0868 11.6877 62.0868 17.512C62.0868 23.2779 57.5986 27.992 52.0747 28.0504C51.8061 28.0504 51.4993 28.0114 51.1157 27.9335C52.7268 28.6932 54.4722 29.2386 56.1025 29.2386C66.2298 29.2386 68.2245 22.1286 68.3396 21.6222C68.6273 20.3171 68.7999 18.9535 68.7999 17.551C68.7808 7.86969 61.3004 0 52.0939 0Z" fill="url(#paint0_linear_104_840)"/>
<path d="M16.7061 35.0241C20.5422 35.0241 24.7427 32.9008 29.1733 28.7127C31.264 26.7453 33.1053 24.6026 34.4479 22.9079C34.4479 22.9079 32.2997 20.395 29.9405 17.6874C28.6555 19.3236 26.8333 21.5443 24.7043 23.5507C20.7723 27.2518 18.183 28.0504 16.7253 28.0504C11.2013 28.0504 6.71313 23.3364 6.71313 17.5121C6.71313 11.7461 11.2013 7.03212 16.7253 6.97369C16.9938 6.97369 17.3007 7.01265 17.6843 7.09056C16.0731 6.33086 14.3277 5.78544 12.6974 5.78544C2.57017 5.76596 0.575411 12.876 0.460329 13.4019C0.172623 14.707 0 16.0706 0 17.4731C0 27.1544 7.48034 35.0241 16.7061 35.0241Z" fill="url(#paint1_linear_104_840)"/>
<path fill-rule="evenodd" clip-rule="evenodd" d="M24.4166 11.6292C23.3042 10.5384 17.8953 6.07758 12.7166 5.92175C3.47166 5.688 0.767228 12.5058 0.517883 13.3824C2.30166 5.74643 8.8997 0.0389589 16.7253 0C23.1123 0 29.5761 6.36978 34.352 12.1162L34.3712 12.0967C34.3712 12.0967 36.5194 14.6096 38.8786 17.3172C38.8786 17.3172 41.5639 20.5313 44.4026 23.3558C45.515 24.4467 50.9047 28.849 56.0834 29.0049C65.5777 29.2776 68.2054 22.0702 68.3396 21.5248C66.5942 29.2192 59.977 34.9461 52.1131 34.9851C45.726 34.9851 39.2622 28.6153 34.4671 22.8689C34.4671 22.8883 34.4479 22.8883 34.4479 22.9078C34.4479 22.9078 32.2997 20.395 29.9406 17.6873C29.9597 17.6873 27.2745 14.4537 24.4166 11.6292Z" fill="#29ABE2"/>
</g>
<defs>
<linearGradient id="paint0_linear_104_840" x1="43.1146" y1="2.77512" x2="67.1292" y2="26.6156" gradientUnits="userSpaceOnUse">
<stop offset="0.21" stop-color="#F15A24"/>
<stop offset="0.6841" stop-color="#FBB03B"/>
</linearGradient>
<linearGradient id="paint1_linear_104_840" x1="25.6913" y1="32.2529" x2="1.67677" y2="8.41243" gradientUnits="userSpaceOnUse">
<stop offset="0.21" stop-color="#ED1E79"/>
<stop offset="0.8929" stop-color="#522785"/>
</linearGradient>
<clipPath id="clip0_104_840">
<rect width="68.8191" height="35.024" fill="white"/>
</clipPath>
</defs>
</svg>
