<svg width="208" height="25" viewBox="0 0 208 25" fill="none" xmlns="http://www.w3.org/2000/svg">
<path d="M25.0823 1.14V24H20.4623V14.1L13.0223 24.03L5.55234 14.1V24H0.902344V1.14L13.0223 16.95L25.0823 1.14ZM36.124 8.19C38.244 8.19 39.784 8.83 40.744 10.11V8.49H44.854V24H40.744V22.41C40.284 22.99 39.644 23.46 38.824 23.82C38.024 24.16 37.124 24.33 36.124 24.33C33.944 24.33 32.144 23.59 30.724 22.11C29.344 20.65 28.654 18.7 28.654 16.26C28.654 13.82 29.344 11.87 30.724 10.41C32.144 8.93 33.944 8.19 36.124 8.19ZM36.844 11.94C35.704 11.94 34.794 12.33 34.114 13.11C33.434 13.87 33.094 14.92 33.094 16.26C33.094 17.6 33.434 18.65 34.114 19.41C34.794 20.17 35.704 20.55 36.844 20.55C37.944 20.55 38.824 20.2 39.484 19.5C40.164 18.8 40.504 17.83 40.504 16.59V15.9C40.504 14.7 40.164 13.74 39.484 13.02C38.824 12.3 37.944 11.94 36.844 11.94ZM64.5708 0.69V24H60.4608V22.41C60.0008 22.99 59.3608 23.46 58.5408 23.82C57.7408 24.16 56.8408 24.33 55.8408 24.33C53.6608 24.33 51.8608 23.59 50.4408 22.11C49.0608 20.65 48.3708 18.7 48.3708 16.26C48.3708 13.82 49.0608 11.87 50.4408 10.41C51.8608 8.93 53.6608 8.19 55.8408 8.19C57.8008 8.19 59.2608 8.74 60.2208 9.84V0.69H64.5708ZM56.5608 11.94C55.4208 11.94 54.5108 12.33 53.8308 13.11C53.1508 13.87 52.8108 14.92 52.8108 16.26C52.8108 17.6 53.1508 18.65 53.8308 19.41C54.5108 20.17 55.4208 20.55 56.5608 20.55C57.6608 20.55 58.5408 20.2 59.2008 19.5C59.8808 18.8 60.2208 17.83 60.2208 16.59V15.9C60.2208 14.7 59.8808 13.74 59.2008 13.02C58.5408 12.3 57.6608 11.94 56.5608 11.94ZM68.9276 0.69H73.3076V9.81C74.1476 8.73 75.4576 8.19 77.2376 8.19C79.0776 8.19 80.5476 8.76 81.6476 9.9C82.7476 11.02 83.2976 12.56 83.2976 14.52V24H78.9176V15.36C78.9176 14.4 78.6676 13.65 78.1676 13.11C77.6876 12.55 77.0276 12.27 76.1876 12.27C75.3276 12.27 74.6276 12.56 74.0876 13.14C73.5676 13.7 73.3076 14.45 73.3076 15.39V24H68.9276V0.69ZM94.0439 8.19C96.1639 8.19 97.7039 8.83 98.6639 10.11V8.49H102.774V24H98.6639V22.41C98.2039 22.99 97.5639 23.46 96.7439 23.82C95.9439 24.16 95.0439 24.33 94.0439 24.33C91.8639 24.33 90.0639 23.59 88.6439 22.11C87.2639 20.65 86.5739 18.7 86.5739 16.26C86.5739 13.82 87.2639 11.87 88.6439 10.41C90.0639 8.93 91.8639 8.19 94.0439 8.19ZM94.7639 11.94C93.6239 11.94 92.7139 12.33 92.0339 13.11C91.3539 13.87 91.0139 14.92 91.0139 16.26C91.0139 17.6 91.3539 18.65 92.0339 19.41C92.7139 20.17 93.6239 20.55 94.7639 20.55C95.8639 20.55 96.7439 20.2 97.4039 19.5C98.0839 18.8 98.4239 17.83 98.4239 16.59V15.9C98.4239 14.7 98.0839 13.74 97.4039 13.02C96.7439 12.3 95.8639 11.94 94.7639 11.94ZM115.441 8.19C117.281 8.19 118.751 8.76 119.851 9.9C120.951 11.02 121.501 12.56 121.501 14.52V24H117.121V15.36C117.121 14.4 116.871 13.65 116.371 13.11C115.891 12.55 115.231 12.27 114.391 12.27C113.531 12.27 112.831 12.56 112.291 13.14C111.771 13.7 111.511 14.45 111.511 15.39V24H107.131V8.49H111.271V10.08C112.071 8.82 113.461 8.19 115.441 8.19ZM143.736 1.56V5.64H136.236V24H131.616V5.64H124.086V1.56H143.736ZM160.966 1.56V5.64H151.216V10.5H159.676V14.49H151.216V19.89H160.996V24H146.566V1.56H160.966ZM175.233 1.23C177.993 1.23 180.353 2 182.313 3.54C184.293 5.08 185.483 7.16 185.883 9.78L181.053 10.2C180.733 8.64 180.053 7.44 179.013 6.6C177.973 5.76 176.663 5.34 175.083 5.34C173.103 5.34 171.513 6.02 170.313 7.38C169.133 8.74 168.543 10.54 168.543 12.78C168.543 15.16 169.153 16.99 170.373 18.27C171.613 19.57 173.193 20.22 175.113 20.22C176.693 20.22 178.003 19.81 179.043 18.99C180.083 18.17 180.753 16.99 181.053 15.45L185.913 15.87C185.493 18.45 184.303 20.51 182.343 22.05C180.403 23.57 178.043 24.33 175.263 24.33C171.903 24.33 169.153 23.29 167.013 21.21C164.893 19.15 163.833 16.34 163.833 12.78C163.833 9.22 164.893 6.41 167.013 4.35C169.153 2.27 171.893 1.23 175.233 1.23ZM207.758 1.56V24H203.138V14.55H194.048V24H189.398V1.56H194.048V10.44H203.138V1.56H207.758Z" fill="white"/>
</svg>
