<svg width="226" height="46" viewBox="0 0 226 46" fill="none" xmlns="http://www.w3.org/2000/svg">
<path d="M18.3608 2.93857C20.3443 2.93857 22.1577 3.27764 23.8578 3.84275C25.5578 4.46437 26.9746 5.36855 28.2213 6.49877C29.4113 7.6855 30.3181 9.09828 30.9981 10.7936C31.6781 12.4889 32.0181 14.4103 32.0181 16.5577C32.0181 18.7617 31.6781 20.683 30.9981 22.3784C30.3181 24.0737 29.4113 25.543 28.2213 26.6732C26.9746 27.8034 25.5578 28.7076 23.8578 29.2727C22.1577 29.8943 20.3443 30.1769 18.3608 30.1769H8.78373V45.2088H0V2.93857H18.3608ZM8.72707 22.4349H17.2275C18.9275 22.4349 20.2876 21.9828 21.421 20.9656C22.5544 19.9484 23.1211 18.4791 23.1211 16.5577C23.1211 14.6364 22.5544 13.1671 21.421 12.1499C20.2876 11.1327 18.9275 10.6241 17.2275 10.6241H8.72707V22.4349Z" fill="#E9ECEF"/>
<path d="M44.8249 33.2285C44.8816 35.0369 45.4483 36.5061 46.525 37.5799C47.5451 38.6536 49.0185 39.1622 50.9452 39.1622C52.3619 39.1622 53.552 38.8796 54.4587 38.3145C55.3654 37.7494 55.9888 36.9582 56.3288 35.941L64.6592 36.3366C64.3758 37.7494 63.8658 39.0491 63.0724 40.1794C62.2791 41.3096 61.259 42.3268 60.069 43.1744C58.8789 44.0221 57.5188 44.7002 55.9888 45.1523C54.4587 45.6044 52.872 45.8305 51.1719 45.8305C48.9051 45.8305 46.865 45.4914 44.9949 44.8133C43.1249 44.1351 41.5381 43.1179 40.2347 41.7617C38.8747 40.4619 37.8546 38.8796 37.1179 36.9582C36.3812 35.0934 36.0412 33.0025 36.0412 30.629C36.0412 28.2555 36.3812 26.1646 37.1179 24.2998C37.8546 22.4349 38.8747 20.8526 40.2347 19.4963C41.5381 18.1966 43.1249 17.1794 44.9383 16.5012C46.7517 15.8231 48.7351 15.4275 50.9452 15.4275C53.042 15.4275 54.9687 15.7666 56.6688 16.4447C58.3689 17.1228 59.8423 18.027 61.089 19.2703C62.3357 20.5135 63.2424 22.0393 63.9225 23.8477C64.6025 25.656 64.9425 27.6904 64.9425 29.9509V33.2285H44.8249ZM50.8885 21.8698C49.0751 21.8698 47.6584 22.3784 46.5817 23.3956C45.505 24.4128 44.9383 25.8821 44.8249 27.7469H56.6121C56.4988 25.9386 55.9888 24.5258 55.0821 23.4521C54.1754 22.4349 52.7586 21.8698 50.8885 21.8698Z" fill="#E9ECEF"/>
<path d="M67.8698 2.93857H77.787L89.3475 26.9558L100.908 2.93857H110.882L89.3475 46L67.8698 2.93857Z" fill="#E9ECEF"/>
<path d="M115.607 45.2088V2.93857H124.391V45.2088H115.607Z" fill="#E9ECEF"/>
<path d="M157.978 2.93857H166.705V46L141.658 22.0958V45.2088H132.874V2.14742L157.978 26.1081V2.93857Z" fill="#E9ECEF"/>
<path d="M203.332 0C215.851 0 226 10.1203 226 22.6044C226 35.0885 215.851 45.2088 203.332 45.2088C190.813 45.2088 180.665 35.0885 180.665 22.6044C180.665 10.1203 190.813 0 203.332 0ZM194.887 14.3761C191.285 14.3938 188.234 16.9016 187.267 20.3087C187.639 19.3825 188.971 17.0874 192.969 17.095C193.745 17.095 194.576 17.3508 195.343 17.7075C195.288 17.6965 195.235 17.6895 195.186 17.6818C196.815 18.3562 198.181 19.482 198.551 19.8396C199.231 20.5032 199.89 21.2162 200.379 21.7619L201.181 22.6872C200.569 23.4559 199.701 24.4985 198.687 25.441C196.815 27.1797 195.582 27.5564 194.887 27.5565C192.256 27.5565 190.119 25.341 190.119 22.6044C190.119 19.8953 192.256 17.6798 194.887 17.6523C194.976 17.6524 195.073 17.6641 195.186 17.6818C194.48 17.3893 193.724 17.1816 192.978 17.1593C188.576 17.0495 187.286 20.2506 187.167 20.6637C187.196 20.5437 187.233 20.4266 187.267 20.3087C187.19 20.4996 187.149 20.6303 187.139 20.6729C187.002 21.2861 186.92 21.9271 186.92 22.586C186.92 27.1348 190.484 30.8327 194.878 30.8327C196.705 30.8326 198.706 29.835 200.816 27.8674C201.812 26.943 202.689 25.9356 203.329 25.1393L203.338 25.1209C205.622 27.8208 208.7 30.8143 211.742 30.8143C215.392 30.7961 218.476 28.2388 219.4 24.7622C219.112 25.5663 217.854 28.1136 213.642 28.1139C212.866 28.1139 212.034 27.8582 211.266 27.5013C211.385 27.5251 211.489 27.5371 211.582 27.5455C209.889 26.8888 208.452 25.7202 208.069 25.3509C206.725 24.0307 205.452 22.5282 205.439 22.5124L205.437 22.5106C205.434 22.5141 205.432 22.5182 205.43 22.5216C204.317 21.2614 203.301 20.0913 203.282 20.0695L202.393 19.0486C200.239 16.6672 197.549 14.3763 194.887 14.3761ZM211.733 14.3761C209.906 14.3761 207.905 15.374 205.795 17.3415C204.799 18.2659 203.922 19.2733 203.282 20.0695L203.292 20.0603C203.311 20.0828 204.325 21.2514 205.437 22.5106C206.049 21.7429 206.915 20.7061 207.924 19.7678C209.796 18.0106 211.02 17.6523 211.724 17.6523C214.355 17.6527 216.492 19.8681 216.492 22.6044C216.492 25.3133 214.355 27.5287 211.724 27.5565C211.679 27.5565 211.632 27.5499 211.582 27.5455C212.242 27.8017 212.941 27.983 213.633 28.0035C218.153 28.1313 219.405 24.7477 219.47 24.49C219.45 24.5766 219.426 24.662 219.403 24.7475C219.442 24.6391 219.463 24.5651 219.47 24.536C219.607 23.9228 219.689 23.2818 219.689 22.6228C219.68 18.0743 216.118 14.3765 211.733 14.3761Z" fill="#29ABE2"/>
</svg>
