<svg width="424" height="147" viewBox="0 0 424 147" fill="none" xmlns="http://www.w3.org/2000/svg">
<path d="M0.164551 139V116.56H8.47455C10.4146 116.56 12.0146 117.13 13.2746 118.27C14.5546 119.37 15.1946 120.99 15.1946 123.13C15.1946 125.25 14.5546 126.88 13.2746 128.02C11.9946 129.14 10.3946 129.7 8.47455 129.7H1.93455V139H0.164551ZM8.26455 118.12H1.93455V128.14H8.26455C9.76455 128.14 10.9846 127.7 11.9246 126.82C12.8846 125.94 13.3646 124.71 13.3646 123.13C13.3646 121.55 12.8846 120.32 11.9246 119.44C10.9846 118.56 9.76455 118.12 8.26455 118.12Z" fill="#212529"/>
<path d="M31.114 123.82V139H29.524V136.42C29.144 137.24 28.534 137.92 27.694 138.46C26.874 139 25.874 139.27 24.694 139.27C23.014 139.27 21.664 138.72 20.644 137.62C19.644 136.5 19.144 135.04 19.144 133.24V123.82H20.794V133.03C20.794 134.45 21.164 135.58 21.904 136.42C22.664 137.26 23.694 137.68 24.994 137.68C26.334 137.68 27.404 137.22 28.204 136.3C29.024 135.36 29.434 134.24 29.434 132.94V123.82H31.114Z" fill="#212529"/>
<path d="M41.1928 123.58C42.7128 123.56 43.9228 123.93 44.8228 124.69C45.7428 125.45 46.2928 126.5 46.4728 127.84L44.7928 127.96C44.6728 127.02 44.2928 126.3 43.6528 125.8C43.0328 125.28 42.1928 125.03 41.1328 125.05C39.9928 125.03 39.1128 125.27 38.4928 125.77C37.8928 126.25 37.5928 126.94 37.5928 127.84C37.5928 128.22 37.6828 128.61 37.8628 129.01C37.9228 129.13 38.1928 129.36 38.6728 129.7C38.7528 129.74 38.8728 129.79 39.0328 129.85C39.1928 129.89 39.3728 129.94 39.5728 130C39.7728 130.06 39.9028 130.1 39.9628 130.12L40.7428 130.3L41.5828 130.48C43.4428 130.92 44.7928 131.43 45.6328 132.01C46.4728 132.59 46.8928 133.51 46.8928 134.77C46.8928 136.19 46.3928 137.3 45.3928 138.1C44.4128 138.88 43.0728 139.27 41.3728 139.27C39.7528 139.27 38.4328 138.9 37.4128 138.16C36.3928 137.4 35.7828 136.33 35.5828 134.95L37.2628 134.83C37.6028 136.81 38.9828 137.8 41.4028 137.8C42.5828 137.8 43.5128 137.55 44.1928 137.05C44.8728 136.55 45.2128 135.83 45.2128 134.89C45.2128 133.99 44.9128 133.36 44.3128 133C43.7528 132.64 42.6128 132.26 40.8928 131.86C40.2728 131.7 39.8728 131.61 39.6928 131.59L38.7028 131.29C38.2228 131.15 37.8928 131.03 37.7128 130.93C36.9528 130.45 36.5028 130.08 36.3628 129.82C36.0628 129.14 35.9128 128.49 35.9128 127.87C35.9128 126.53 36.3728 125.48 37.2928 124.72C38.2328 123.94 39.5328 123.56 41.1928 123.58Z" fill="#212529"/>
<path d="M57.9063 123.55C59.2663 123.55 60.4463 123.84 61.4464 124.42C62.4664 125 63.2163 125.78 63.6963 126.76V123.82H65.3163V139H63.6963V136.09C63.2163 137.07 62.4664 137.85 61.4464 138.43C60.4463 138.99 59.2663 139.27 57.9063 139.27C55.7663 139.27 54.0063 138.57 52.6263 137.17C51.2463 135.75 50.5563 133.84 50.5563 131.44C50.5563 129 51.2463 127.08 52.6263 125.68C54.0063 124.26 55.7663 123.55 57.9063 123.55ZM58.0563 125.05C56.3363 125.05 54.9363 125.62 53.8563 126.76C52.7763 127.9 52.2363 129.45 52.2363 131.41C52.2363 133.37 52.7763 134.93 53.8563 136.09C54.9363 137.23 56.3363 137.8 58.0563 137.8C59.7363 137.8 61.0763 137.29 62.0763 136.27C63.0963 135.23 63.6063 133.78 63.6063 131.92V130.9C63.6063 129.04 63.1064 127.6 62.1063 126.58C61.1063 125.56 59.7563 125.05 58.0563 125.05Z" fill="#212529"/>
<path d="M75.9523 137.62C76.2723 137.62 76.8023 137.57 77.5423 137.47V139C76.9823 139.1 76.3423 139.15 75.6223 139.15C74.2823 139.15 73.2423 138.77 72.5023 138.01C71.7623 137.23 71.3923 136.08 71.3923 134.56L71.4223 125.29H68.5423V123.82H71.4223L71.4523 118.45H73.1623L73.1323 123.82H77.4823V125.29H73.1323L73.0723 134.26C73.0723 136.5 74.0323 137.62 75.9523 137.62Z" fill="#212529"/>
<path d="M106.496 116.56L96.296 139.36L86.156 116.56H88.136L96.296 135.28L104.516 116.56H106.496Z" fill="#212529"/>
<path d="M113.746 123.55C115.106 123.55 116.286 123.84 117.286 124.42C118.306 125 119.056 125.78 119.536 126.76V123.82H121.156V139H119.536V136.09C119.056 137.07 118.306 137.85 117.286 138.43C116.286 138.99 115.106 139.27 113.746 139.27C111.606 139.27 109.846 138.57 108.466 137.17C107.086 135.75 106.396 133.84 106.396 131.44C106.396 129 107.086 127.08 108.466 125.68C109.846 124.26 111.606 123.55 113.746 123.55ZM113.896 125.05C112.176 125.05 110.776 125.62 109.696 126.76C108.616 127.9 108.076 129.45 108.076 131.41C108.076 133.37 108.616 134.93 109.696 136.09C110.776 137.23 112.176 137.8 113.896 137.8C115.576 137.8 116.916 137.29 117.916 136.27C118.936 135.23 119.446 133.78 119.446 131.92V130.9C119.446 129.04 118.946 127.6 117.946 126.58C116.946 125.56 115.596 125.05 113.896 125.05Z" fill="#212529"/>
<path d="M128.522 115.69V139H126.842V115.69H128.522Z" fill="#212529"/>
<path d="M134.195 117.19C134.515 116.79 134.905 116.68 135.365 116.86C135.845 117.02 136.145 117.32 136.265 117.76C136.385 118.18 136.275 118.57 135.935 118.93C135.695 119.17 135.405 119.29 135.065 119.29C134.725 119.29 134.435 119.17 134.195 118.93C133.955 118.69 133.835 118.4 133.835 118.06C133.835 117.72 133.955 117.43 134.195 117.19ZM135.905 123.82V139H134.225V123.82H135.905Z" fill="#212529"/>
<path d="M155.258 115.69V139H153.638V136.09C153.158 137.07 152.408 137.85 151.388 138.43C150.388 138.99 149.208 139.27 147.848 139.27C145.708 139.27 143.948 138.57 142.568 137.17C141.188 135.75 140.498 133.84 140.498 131.44C140.498 129 141.188 127.08 142.568 125.68C143.948 124.26 145.708 123.55 147.848 123.55C149.188 123.55 150.358 123.83 151.358 124.39C152.358 124.95 153.098 125.7 153.578 126.64V115.69H155.258ZM147.998 125.05C146.278 125.05 144.878 125.62 143.798 126.76C142.718 127.9 142.178 129.45 142.178 131.41C142.178 133.37 142.718 134.93 143.798 136.09C144.878 137.23 146.278 137.8 147.998 137.8C149.678 137.8 151.018 137.29 152.018 136.27C153.038 135.23 153.548 133.78 153.548 131.92V130.9C153.548 129.04 153.048 127.6 152.048 126.58C151.048 125.56 149.698 125.05 147.998 125.05Z" fill="#212529"/>
<path d="M167.184 123.55C168.544 123.55 169.724 123.84 170.724 124.42C171.744 125 172.494 125.78 172.974 126.76V123.82H174.594V139H172.974V136.09C172.494 137.07 171.744 137.85 170.724 138.43C169.724 138.99 168.544 139.27 167.184 139.27C165.044 139.27 163.284 138.57 161.904 137.17C160.524 135.75 159.834 133.84 159.834 131.44C159.834 129 160.524 127.08 161.904 125.68C163.284 124.26 165.044 123.55 167.184 123.55ZM167.334 125.05C165.614 125.05 164.214 125.62 163.134 126.76C162.054 127.9 161.514 129.45 161.514 131.41C161.514 133.37 162.054 134.93 163.134 136.09C164.214 137.23 165.614 137.8 167.334 137.8C169.014 137.8 170.354 137.29 171.354 136.27C172.374 135.23 172.884 133.78 172.884 131.92V130.9C172.884 129.04 172.384 127.6 171.384 126.58C170.384 125.56 169.034 125.05 167.334 125.05Z" fill="#212529"/>
<path d="M184.66 123.58C186.18 123.56 187.39 123.93 188.29 124.69C189.21 125.45 189.76 126.5 189.94 127.84L188.26 127.96C188.14 127.02 187.76 126.3 187.12 125.8C186.5 125.28 185.66 125.03 184.6 125.05C183.46 125.03 182.58 125.27 181.96 125.77C181.36 126.25 181.06 126.94 181.06 127.84C181.06 128.22 181.15 128.61 181.33 129.01C181.39 129.13 181.66 129.36 182.14 129.7C182.22 129.74 182.34 129.79 182.5 129.85C182.66 129.89 182.84 129.94 183.04 130C183.24 130.06 183.37 130.1 183.43 130.12L184.21 130.3L185.05 130.48C186.91 130.92 188.26 131.43 189.1 132.01C189.94 132.59 190.36 133.51 190.36 134.77C190.36 136.19 189.86 137.3 188.86 138.1C187.88 138.88 186.54 139.27 184.84 139.27C183.22 139.27 181.9 138.9 180.88 138.16C179.86 137.4 179.25 136.33 179.05 134.95L180.73 134.83C181.07 136.81 182.45 137.8 184.87 137.8C186.05 137.8 186.98 137.55 187.66 137.05C188.34 136.55 188.68 135.83 188.68 134.89C188.68 133.99 188.38 133.36 187.78 133C187.22 132.64 186.08 132.26 184.36 131.86C183.74 131.7 183.34 131.61 183.16 131.59L182.17 131.29C181.69 131.15 181.36 131.03 181.18 130.93C180.42 130.45 179.97 130.08 179.83 129.82C179.53 129.14 179.38 128.49 179.38 127.87C179.38 126.53 179.84 125.48 180.76 124.72C181.7 123.94 183 123.56 184.66 123.58Z" fill="#212529"/>
<path d="M195.103 117.19C195.423 116.79 195.813 116.68 196.273 116.86C196.753 117.02 197.053 117.32 197.173 117.76C197.293 118.18 197.183 118.57 196.843 118.93C196.603 119.17 196.313 119.29 195.973 119.29C195.633 119.29 195.343 119.17 195.103 118.93C194.863 118.69 194.743 118.4 194.743 118.06C194.743 117.72 194.863 117.43 195.103 117.19ZM196.813 123.82V139H195.133V123.82H196.813Z" fill="#212529"/>
<path d="M211.729 116.56V139H209.959V116.56H211.729Z" fill="#212529"/>
<path d="M217.486 117.19C217.806 116.79 218.196 116.68 218.656 116.86C219.136 117.02 219.436 117.32 219.556 117.76C219.676 118.18 219.566 118.57 219.226 118.93C218.986 119.17 218.696 119.29 218.356 119.29C218.016 119.29 217.726 119.17 217.486 118.93C217.246 118.69 217.126 118.4 217.126 118.06C217.126 117.72 217.246 117.43 217.486 117.19ZM217.546 123.82H219.226V141.64C219.226 143.26 218.816 144.52 217.996 145.42C217.176 146.32 216.046 146.77 214.606 146.77C214.546 146.77 214.216 146.75 213.616 146.71V145.21C213.856 145.27 214.126 145.3 214.426 145.3C216.506 145.3 217.546 144.1 217.546 141.7V123.82Z" fill="#212529"/>
<path d="M231.139 123.55C232.499 123.55 233.679 123.84 234.679 124.42C235.699 125 236.449 125.78 236.929 126.76V123.82H238.549V139H236.929V136.09C236.449 137.07 235.699 137.85 234.679 138.43C233.679 138.99 232.499 139.27 231.139 139.27C228.999 139.27 227.239 138.57 225.859 137.17C224.479 135.75 223.789 133.84 223.789 131.44C223.789 129 224.479 127.08 225.859 125.68C227.239 124.26 228.999 123.55 231.139 123.55ZM231.289 125.05C229.569 125.05 228.169 125.62 227.089 126.76C226.009 127.9 225.469 129.45 225.469 131.41C225.469 133.37 226.009 134.93 227.089 136.09C228.169 137.23 229.569 137.8 231.289 137.8C232.969 137.8 234.309 137.29 235.309 136.27C236.329 135.23 236.839 133.78 236.839 131.92V130.9C236.839 129.04 236.339 127.6 235.339 126.58C234.339 125.56 232.989 125.05 231.289 125.05Z" fill="#212529"/>
<path d="M253.775 123.82L244.835 137.56H254.045V139H242.075L251.015 125.26H242.465V123.82H253.775Z" fill="#212529"/>
<path d="M263.981 123.55C265.341 123.55 266.521 123.84 267.521 124.42C268.541 125 269.291 125.78 269.771 126.76V123.82H271.391V139H269.771V136.09C269.291 137.07 268.541 137.85 267.521 138.43C266.521 138.99 265.341 139.27 263.981 139.27C261.841 139.27 260.081 138.57 258.701 137.17C257.321 135.75 256.631 133.84 256.631 131.44C256.631 129 257.321 127.08 258.701 125.68C260.081 124.26 261.841 123.55 263.981 123.55ZM264.131 125.05C262.411 125.05 261.011 125.62 259.931 126.76C258.851 127.9 258.311 129.45 258.311 131.41C258.311 133.37 258.851 134.93 259.931 136.09C261.011 137.23 262.411 137.8 264.131 137.8C265.811 137.8 267.151 137.29 268.151 136.27C269.171 135.23 269.681 133.78 269.681 131.92V130.9C269.681 129.04 269.181 127.6 268.181 126.58C267.181 125.56 265.831 125.05 264.131 125.05Z" fill="#212529"/>
<path d="M277.077 115.69H278.757V126.31C279.137 125.51 279.767 124.85 280.647 124.33C281.527 123.81 282.557 123.55 283.737 123.55C285.457 123.55 286.856 124.12 287.936 125.26C289.036 126.36 289.587 127.83 289.587 129.67V139H287.906V129.88C287.906 128.46 287.497 127.31 286.677 126.43C285.857 125.55 284.786 125.11 283.466 125.11C282.106 125.11 280.977 125.58 280.077 126.52C279.197 127.46 278.757 128.58 278.757 129.88V139H277.077V115.69Z" fill="#212529"/>
<path d="M302.391 116.26L316.851 134.53V116.56H318.621V139.3L304.161 121.06V139H302.391V116.26Z" fill="#212529"/>
<path d="M330.66 123.55C332.02 123.55 333.2 123.84 334.2 124.42C335.22 125 335.97 125.78 336.45 126.76V123.82H338.07V139H336.45V136.09C335.97 137.07 335.22 137.85 334.2 138.43C333.2 138.99 332.02 139.27 330.66 139.27C328.52 139.27 326.76 138.57 325.38 137.17C324 135.75 323.31 133.84 323.31 131.44C323.31 129 324 127.08 325.38 125.68C326.76 124.26 328.52 123.55 330.66 123.55ZM330.81 125.05C329.09 125.05 327.69 125.62 326.61 126.76C325.53 127.9 324.99 129.45 324.99 131.41C324.99 133.37 325.53 134.93 326.61 136.09C327.69 137.23 329.09 137.8 330.81 137.8C332.49 137.8 333.83 137.29 334.83 136.27C335.85 135.23 336.36 133.78 336.36 131.92V130.9C336.36 129.04 335.86 127.6 334.86 126.58C333.86 125.56 332.51 125.05 330.81 125.05Z" fill="#212529"/>
<path d="M348.136 123.58C349.656 123.56 350.866 123.93 351.766 124.69C352.686 125.45 353.236 126.5 353.416 127.84L351.736 127.96C351.616 127.02 351.236 126.3 350.596 125.8C349.976 125.28 349.136 125.03 348.076 125.05C346.936 125.03 346.056 125.27 345.436 125.77C344.836 126.25 344.536 126.94 344.536 127.84C344.536 128.22 344.626 128.61 344.806 129.01C344.866 129.13 345.136 129.36 345.616 129.7C345.696 129.74 345.816 129.79 345.976 129.85C346.136 129.89 346.316 129.94 346.516 130C346.716 130.06 346.846 130.1 346.906 130.12L347.686 130.3L348.526 130.48C350.386 130.92 351.736 131.43 352.576 132.01C353.416 132.59 353.836 133.51 353.836 134.77C353.836 136.19 353.336 137.3 352.336 138.1C351.356 138.88 350.016 139.27 348.316 139.27C346.696 139.27 345.376 138.9 344.356 138.16C343.336 137.4 342.726 136.33 342.526 134.95L344.206 134.83C344.546 136.81 345.926 137.8 348.346 137.8C349.526 137.8 350.456 137.55 351.136 137.05C351.816 136.55 352.156 135.83 352.156 134.89C352.156 133.99 351.856 133.36 351.256 133C350.696 132.64 349.556 132.26 347.836 131.86C347.216 131.7 346.816 131.61 346.636 131.59L345.646 131.29C345.166 131.15 344.836 131.03 344.656 130.93C343.896 130.45 343.446 130.08 343.306 129.82C343.006 129.14 342.856 128.49 342.856 127.87C342.856 126.53 343.316 125.48 344.236 124.72C345.176 123.94 346.476 123.56 348.136 123.58Z" fill="#212529"/>
<path d="M358.58 117.19C358.9 116.79 359.29 116.68 359.75 116.86C360.23 117.02 360.53 117.32 360.65 117.76C360.77 118.18 360.66 118.57 360.32 118.93C360.08 119.17 359.79 119.29 359.45 119.29C359.11 119.29 358.82 119.17 358.58 118.93C358.34 118.69 358.22 118.4 358.22 118.06C358.22 117.72 358.34 117.43 358.58 117.19ZM360.29 123.82V139H358.61V123.82H360.29Z" fill="#212529"/>
<path d="M367.043 125.71C368.523 124.27 370.353 123.55 372.533 123.55C374.713 123.55 376.543 124.27 378.023 125.71C379.483 127.11 380.213 129.01 380.213 131.41C380.213 133.79 379.483 135.7 378.023 137.14C376.543 138.56 374.713 139.27 372.533 139.27C370.353 139.27 368.523 138.56 367.043 137.14C365.603 135.7 364.883 133.79 364.883 131.41C364.883 129.03 365.603 127.13 367.043 125.71ZM376.793 126.76C375.693 125.62 374.273 125.05 372.533 125.05C370.793 125.05 369.363 125.62 368.243 126.76C367.123 127.92 366.563 129.47 366.563 131.41C366.563 133.35 367.123 134.91 368.243 136.09C369.383 137.23 370.813 137.8 372.533 137.8C374.273 137.8 375.693 137.23 376.793 136.09C377.933 134.91 378.503 133.35 378.503 131.41C378.503 129.45 377.933 127.9 376.793 126.76Z" fill="#212529"/>
<path d="M391.461 123.55C393.181 123.55 394.581 124.12 395.661 125.26C396.761 126.36 397.311 127.83 397.311 129.67V139H395.631V129.88C395.631 128.46 395.221 127.31 394.401 126.43C393.581 125.55 392.511 125.11 391.191 125.11C389.831 125.11 388.701 125.58 387.801 126.52C386.921 127.46 386.481 128.58 386.481 129.88V139H384.801V123.82H386.421V126.4C386.801 125.58 387.431 124.9 388.311 124.36C389.211 123.82 390.261 123.55 391.461 123.55Z" fill="#212529"/>
<path d="M409.147 123.55C410.507 123.55 411.687 123.84 412.687 124.42C413.707 125 414.457 125.78 414.937 126.76V123.82H416.557V139H414.937V136.09C414.457 137.07 413.707 137.85 412.687 138.43C411.687 138.99 410.507 139.27 409.147 139.27C407.007 139.27 405.247 138.57 403.867 137.17C402.487 135.75 401.797 133.84 401.797 131.44C401.797 129 402.487 127.08 403.867 125.68C405.247 124.26 407.007 123.55 409.147 123.55ZM409.297 125.05C407.577 125.05 406.177 125.62 405.097 126.76C404.017 127.9 403.477 129.45 403.477 131.41C403.477 133.37 404.017 134.93 405.097 136.09C406.177 137.23 407.577 137.8 409.297 137.8C410.977 137.8 412.317 137.29 413.317 136.27C414.337 135.23 414.847 133.78 414.847 131.92V130.9C414.847 129.04 414.347 127.6 413.347 126.58C412.347 125.56 410.997 125.05 409.297 125.05Z" fill="#212529"/>
<path d="M423.923 115.69V139H422.243V115.69H423.923Z" fill="#212529"/>
<path d="M0.249942 84V1.71999H35.8899C43.9566 1.71999 50.3733 4.06666 55.1399 8.75999C59.9799 13.4533 62.3999 19.9433 62.3999 28.23C62.3999 36.5167 59.9799 43.0067 55.1399 47.7C50.3733 52.3933 43.9566 54.74 35.8899 54.74H17.2999V84H0.249942ZM33.6899 16.68H17.1899V39.67H33.6899C37.1366 39.67 39.8866 38.68 41.9399 36.7C44.0666 34.6467 45.1299 31.8233 45.1299 28.23C45.1299 24.6367 44.0666 21.8133 41.9399 19.76C39.8866 17.7067 37.1366 16.68 33.6899 16.68Z" fill="#212529"/>
<path d="M124.913 54.3V60.68H85.8626C86.0093 64.2733 87.1093 67.0967 89.1626 69.15C91.2893 71.2033 94.1493 72.23 97.7426 72.23C103.536 72.23 107.019 70.14 108.193 65.96L124.363 66.73C123.336 72.23 120.366 76.6667 115.453 80.04C110.539 83.4867 104.783 85.21 98.1826 85.21C89.3093 85.21 82.1959 82.5333 76.8426 77.18C71.4893 71.8267 68.8126 64.64 68.8126 55.62C68.8126 46.5267 71.4893 39.34 76.8426 34.06C82.1959 28.7067 89.1626 26.03 97.7426 26.03C106.029 26.03 112.629 28.56 117.543 33.62C122.456 38.5333 124.913 45.4267 124.913 54.3ZM105.663 41.54C103.756 39.56 101.079 38.57 97.6326 38.57C94.1859 38.57 91.3993 39.5967 89.2726 41.65C87.2193 43.63 86.0826 46.4167 85.8626 50.01H108.743C108.596 46.3433 107.569 43.52 105.663 41.54Z" fill="#212529"/>
<path d="M214.085 1.71999L172.285 85.54L130.595 1.71999H149.845L172.285 48.47L194.725 1.71999H214.085Z" fill="#212529"/>
<path d="M240.308 1.71999V84H223.258V1.71999H240.308Z" fill="#212529"/>
<path d="M256.773 0.179993L305.503 46.82V1.71999H322.443V85.54L273.823 39.01V84H256.773V0.179993Z" fill="#212529"/>
<path d="M383 2C405.644 2 424 20.3563 424 43C424 65.6437 405.644 84 383 84C360.356 84 342 65.6437 342 43C342 20.3563 360.356 2 383 2ZM367.725 28.0762C361.193 28.1083 355.655 32.6741 353.918 38.876C354.566 37.2252 356.962 32.993 364.255 33.0068C365.659 33.0069 367.163 33.4708 368.551 34.1182C368.447 34.0972 368.349 34.0807 368.257 34.0664C371.207 35.2893 373.681 37.3372 374.351 37.9863C376.197 39.7918 377.96 41.7939 378.719 42.6816L379.109 43.1494C378.002 44.5438 376.433 46.4366 374.599 48.1465C371.211 51.3004 368.98 51.9814 367.725 51.9814C362.966 51.9814 359.1 47.9636 359.1 43C359.1 38.0862 362.966 34.0684 367.725 34.0186C367.883 34.0186 368.057 34.0353 368.257 34.0664C366.982 33.5379 365.618 33.1632 364.271 33.123C356.307 32.9238 353.977 38.7332 353.762 39.4805C353.81 39.2773 353.862 39.0758 353.918 38.876L353.836 39.0889C353.762 39.2971 353.725 39.4409 353.713 39.4971C353.465 40.6093 353.316 41.7715 353.316 42.9668C353.316 51.2173 359.76 57.9238 367.708 57.9238C371.013 57.9238 374.631 56.114 378.448 52.5449C380.249 50.8684 381.836 49.0428 382.992 47.5986L383 47.582C383.004 47.5778 383.009 47.5737 383.009 47.5654C387.14 52.4625 392.708 57.8905 398.21 57.8906C404.824 57.8582 410.412 53.2051 412.072 46.8828C411.573 48.3056 409.321 52.993 401.647 52.9932C400.243 52.9932 398.738 52.5293 397.351 51.8818C397.56 51.9238 397.743 51.9504 397.907 51.9658C394.848 50.7733 392.256 48.6485 391.567 47.9805C389.122 45.5734 386.809 42.834 386.809 42.834L386.807 42.8311C386.802 42.8374 386.797 42.8443 386.792 42.8506C384.76 40.5432 382.909 38.4014 382.909 38.4014L382.121 37.4785C378.099 32.8471 372.883 28.0763 367.725 28.0762ZM398.193 28.0762C394.889 28.0763 391.27 29.886 387.453 33.4551C385.652 35.1316 384.066 36.9572 382.909 38.4014L382.926 38.3848C382.926 38.3848 384.775 40.5246 386.807 42.8311C387.913 41.4384 389.478 39.5557 391.304 37.8535C394.69 34.6667 396.904 34.0187 398.177 34.0186C402.935 34.0186 406.803 38.0364 406.803 43C406.803 47.9138 402.935 51.9316 398.177 51.9814C398.092 51.9814 398.003 51.9748 397.907 51.9658C399.105 52.4328 400.375 52.7566 401.631 52.7939C409.808 53.0261 412.072 46.8869 412.188 46.4199C412.153 46.5754 412.113 46.7293 412.072 46.8828C412.14 46.6883 412.176 46.5551 412.188 46.5029C412.436 45.3907 412.586 44.2284 412.586 43.0332C412.569 34.7827 406.125 28.0762 398.193 28.0762Z" fill="#29ABE2"/>
</svg>
